<svg id="Layer_1" data-name="Layer 1" xmlns="http://www.w3.org/2000/svg" viewBox="0 0 99.7 99.7"><defs><style>.cls-1,.cls-3,.cls-5{fill:none;}.cls-1,.cls-4{stroke:#8983fc;}.cls-1,.cls-3,.cls-4{stroke-miterlimit:10;stroke-width:2.79px;}.cls-2,.cls-4{fill:#8983fc;}.cls-3{stroke:#545454;}</style></defs><title>For Haoqin</title><line class="cls-1" x1="10.99" y1="5.41" x2="87.91" y2="5.41"/><rect class="cls-2" x="6.59" y="2.16" width="7.69" height="7.58" rx="1.28"/><rect class="cls-2" x="85.71" y="2.16" width="7.69" height="7.58" rx="1.28"/><rect class="cls-2" x="43.96" width="12.09" height="11.9" rx="2.01"/><path class="cls-3" d="M5.49,47.62C6.37,23.69,26.84,4.83,50.55,5.41A44.14,44.14,0,0,1,93.41,47.62"/><path class="cls-1" d="M35.31,86,27.55,61.13Q38.76,44.06,50,27L71.77,61.13Q67.89,73.54,64,86"/><line class="cls-1" x1="49.95" y1="28.55" x2="49.95" y2="64.23"/><circle class="cls-4" cx="49.76" cy="67.9" r="3.55"/><rect class="cls-3" x="31.04" y="86.73" width="37.23" height="11.9" rx="2.07"/><rect class="cls-2" y="42.21" width="12.09" height="11.9" rx="2.01"/><rect class="cls-2" x="86.91" y="42.21" width="12.09" height="11.9" rx="2.01"/><rect class="cls-5" x="-712" y="-244" width="1356" height="500"/></svg>