<svg id="Layer_1" data-name="Layer 1" xmlns="http://www.w3.org/2000/svg" viewBox="0 0 99.7 99.7"><defs><style>.cls-1,.cls-2,.cls-3{fill:none;}.cls-1{stroke:#545454;}.cls-1,.cls-2{stroke-linecap:round;stroke-linejoin:round;stroke-width:3px;}.cls-2{stroke:#8983fc;}</style></defs><title>For Haoqin</title><line class="cls-1" x1="12.12" y1="31.94" x2="12.12" y2="56.43"/><line class="cls-1" x1="20.89" y1="41.61" x2="20.89" y2="56.13"/><path class="cls-1" d="M32.08,46.45,65,13.79a5.46,5.46,0,0,1,5.14,0L85.6,28.91a5.46,5.46,0,0,1,.3,6.35L32.08,87.58"/><line class="cls-1" x1="46.89" y1="71.85" x2="32.08" y2="57.04"/><line class="cls-1" x1="60.8" y1="58.85" x2="40.26" y2="38.34"/><line class="cls-1" x1="74.41" y1="44.64" x2="54.54" y2="25.17"/><path class="cls-1" d="M52.66,67.58l41.11,0s3.93.91,4.23,4.23V93.63s0,3.63-3.33,3.93H26"/><line class="cls-1" x1="40.24" y1="81.23" x2="40.24" y2="96.65"/><line class="cls-1" x1="59.29" y1="68.53" x2="59.29" y2="96.65"/><line class="cls-1" x1="78.34" y1="69.13" x2="78.34" y2="96.65"/><circle class="cls-2" cx="21.49" cy="88.18" r="1.21"/><path class="cls-1" d="M2,64.14V94.08a4,4,0,0,0,4.23,3.63H27s3.71.3,4-3.93V64.14"/><path class="cls-2" d="M1.84,64V5A4,4,0,0,1,5.16,2H27.84a3.57,3.57,0,0,1,3,3.33V64Z"/><rect class="cls-3" x="-819" y="-244" width="1356" height="500"/></svg>