<svg id="Layer_1" data-name="Layer 1" xmlns="http://www.w3.org/2000/svg" viewBox="0 0 99.7 99.7"><defs><style>.cls-1,.cls-2,.cls-3{fill:none;}.cls-2{stroke:#545454;}.cls-2,.cls-3{stroke-linecap:round;stroke-linejoin:round;stroke-width:4px;}.cls-3{stroke:#8983fc;}</style></defs><title>For Haoqin</title><rect class="cls-1" x="-1142" y="-244" width="1356" height="500"/><path class="cls-2" d="M18.73,50.79a21.41,21.41,0,0,1-.45-3.7,7.42,7.42,0,0,1,14.83,0,20.47,20.47,0,0,1-.45,3.69h17V67.56a22.1,22.1,0,0,0-3.77-.44,7.28,7.28,0,1,0,0,14.55,22.1,22.1,0,0,0,3.77-.44V98c-26.54,0-48-21.16-48-47.21Z"/><path class="cls-2" d="M49.7,19.78a21.9,21.9,0,0,1,3.76-.44,7.29,7.29,0,1,1,0,14.57,22.09,22.09,0,0,1-3.76-.45V50.21H32.64a21.33,21.33,0,0,0,.44-3.7,7.41,7.41,0,0,0-14.81,0,21.52,21.52,0,0,0,.45,3.7H1.66C1.68,24.13,23.19,3,49.7,3V19.78Z"/><path class="cls-2" d="M50,80.64a21.9,21.9,0,0,1-3.76.44,7.29,7.29,0,1,1,0-14.57A21.9,21.9,0,0,1,50,67V50.21H67a21.33,21.33,0,0,0-.44,3.7,7.41,7.41,0,0,0,14.81,0,21.52,21.52,0,0,0-.45-3.7H98c0,26.08-21.53,47.21-48,47.21V80.64Z"/><path class="cls-3" d="M80.94,50.2a21.52,21.52,0,0,1,.45,3.7,7.41,7.41,0,0,1-14.82,0A21.52,21.52,0,0,1,67,50.2H50V33.44a22,22,0,0,0,3.76.44,7.28,7.28,0,1,0,0-14.56,22,22,0,0,0-3.76.44V3C76.52,3,98,24.16,98,50.2Z"/></svg>