<svg id="Layer_1" data-name="Layer 1" xmlns="http://www.w3.org/2000/svg" viewBox="0 0 99.7 99.7"><defs><style>.cls-1,.cls-2,.cls-5{fill:none;}.cls-1,.cls-2,.cls-3{stroke:#545454;stroke-linecap:round;stroke-miterlimit:10;}.cls-1{stroke-width:3.5px;}.cls-2{stroke-width:4px;}.cls-3{fill:#545454;}.cls-4{fill:#8983fc;}</style></defs><title>For Haoqin</title><path class="cls-1" d="M8.53,32.32S8.32,12.87,32.16,9.53c0,0,16.31-16.94,34.29,0,0,0,22.79-.63,24.46,24,0,0,15.06,15.48,0,33.88,0,0-1,23.21-23.83,23.21,0,0-17.15,16.52-34.71,0,0,0-21.75.42-23.84-23.84C8.53,66.82-6.32,51.56,8.53,32.32Z"/><path class="cls-2" d="M63.1,21S74.6,21,79,32.32"/><circle class="cls-3" cx="83.95" cy="41.27" r="1.95"/><path class="cls-4" d="M22.82,59.88a2.1,2.1,0,0,1-.91.68,1.63,1.63,0,0,1-1.07,0,1.72,1.72,0,0,1-.91-.83,1.92,1.92,0,0,1-.25-.52,1.7,1.7,0,0,1-.09-.54v-7.2a1.58,1.58,0,0,1-.59-.64,1.76,1.76,0,0,1-.2-.84,1.8,1.8,0,0,1,.21-.84,2.07,2.07,0,0,1,.58-.67c0-.38,0-.71,0-1s0-.52,0-.77V46a7.81,7.81,0,0,0-.06-.9,2.71,2.71,0,0,0-.2-.84c-.11-.28-.21-.55-.29-.82A2.41,2.41,0,0,1,19,42.6a1.41,1.41,0,0,1,.37-.83,1.78,1.78,0,0,1,1.11-.65c.44-.07.88-.13,1.33-.17q1.39-.09,2.79-.09t2.79-.06a5.28,5.28,0,0,0,.85-.08c.3,0,.61-.09.91-.12a4.71,4.71,0,0,1,.92,0,2,2,0,0,1,.82.26,1.66,1.66,0,0,1,.67.7,1.72,1.72,0,0,1,.2.88,1.94,1.94,0,0,1-.26.89,1.68,1.68,0,0,1-.7.67,3.8,3.8,0,0,1-1.74.44l-1.8.05c-.67,0-1.34,0-2,0s-1.34,0-2,0c0,.38.07.84.09,1.37s0,1.3,0,2.32l2,0a14.43,14.43,0,0,0,2-.19,6.69,6.69,0,0,0,1.1-.22,2.65,2.65,0,0,1,1.1-.11,1.85,1.85,0,0,1,1.07.46,2,2,0,0,1,.62.9,1.58,1.58,0,0,1,0,1,1.67,1.67,0,0,1-.83.9,6.06,6.06,0,0,1-1.63.63,12.94,12.94,0,0,1-1.78.27q-.91.07-1.83.06H23.31v6.8A2.21,2.21,0,0,1,22.82,59.88Z"/><path class="cls-4" d="M38,58.67a2,2,0,0,1-.64,1.25,2.68,2.68,0,0,1-1.19.62,1.7,1.7,0,0,1-1.18-.14,1.17,1.17,0,0,1-.56-1.09q-.15-3.51-.15-7.28V44.55A1.44,1.44,0,0,1,33.5,44a1.65,1.65,0,0,1-.29-.81,2,2,0,0,1,.1-.9,2.22,2.22,0,0,1,.46-.79,3.16,3.16,0,0,1,.91-.67A11.53,11.53,0,0,1,36,40.26c.46-.17.91-.32,1.36-.44s.82-.21,1.12-.27a9.39,9.39,0,0,1,3.88,0A9.08,9.08,0,0,1,45.74,41,6.58,6.58,0,0,1,48,43.82a5.85,5.85,0,0,1,.15,3.9,8.66,8.66,0,0,1-.46,1.22A6.23,6.23,0,0,1,47,50.07a6.53,6.53,0,0,1-1.22,1.4,11.76,11.76,0,0,1-1.52,1.13c.38.4.75.83,1.1,1.28a8.31,8.31,0,0,0,1.15,1.22c.17.14.41.36.72.67s.62.63.92,1a11,11,0,0,1,.77,1,1.34,1.34,0,0,1,.31.83,2.27,2.27,0,0,1-.32,1.06,2.45,2.45,0,0,1-.7.73,1.71,1.71,0,0,1-.9.26,1.76,1.76,0,0,1-1-.34,7.48,7.48,0,0,1-1-1c-.32-.39-.64-.75-.94-1.07-.67-.73-1.33-1.47-2-2.21s-1.29-1.47-2-2.18a10.27,10.27,0,0,1-1.24.17l-1.23.1v4.55ZM43.4,43.91a5.89,5.89,0,0,0-2.66-.83,6.91,6.91,0,0,0-2.79.4v6.89a22.15,22.15,0,0,0,2.7-.35,5.67,5.67,0,0,0,2.45-1.14,4,4,0,0,0,1-1.15,3.4,3.4,0,0,0,.46-1.34,2.69,2.69,0,0,0-.19-1.34A2.47,2.47,0,0,0,43.4,43.91Z"/><path class="cls-4" d="M63,55.65a1.93,1.93,0,0,1,1,.29,2.35,2.35,0,0,1,.67.62,1.74,1.74,0,0,1,.3.84,1.66,1.66,0,0,1-.19,1,1.77,1.77,0,0,1-.38.5,1.22,1.22,0,0,1-.54.35,18,18,0,0,1-4,.72,23,23,0,0,1-4.07-.08l-1.26-.12a2.66,2.66,0,0,1-1.21-.39,2,2,0,0,1-.94-1.74v-13a1.89,1.89,0,0,1-.55-.61,2,2,0,0,1-.26-.78,1.53,1.53,0,0,1,.11-.79,1.6,1.6,0,0,1,.51-.66,3.38,3.38,0,0,1,1.41-.65c.53-.11,1-.21,1.55-.29a21.26,21.26,0,0,1,3.17-.25l3.23,0a9.61,9.61,0,0,0,1.13-.07,2.42,2.42,0,0,1,1.13.1,2,2,0,0,1,.92.67,2.07,2.07,0,0,1,.39,1,1.65,1.65,0,0,1-.2,1,1.73,1.73,0,0,1-.9.76,4,4,0,0,1-1.63.27l-1.66,0-2.32,0a20,20,0,0,0-2.31.19v4.23a16,16,0,0,0,2.19,0c.73,0,1.47-.09,2.2-.15.32,0,.65,0,1-.09a4.26,4.26,0,0,1,1,0,1.52,1.52,0,0,1,1,.55,2.07,2.07,0,0,1,.44,1,1.89,1.89,0,0,1-.2,1.11,1.65,1.65,0,0,1-.88.8,5.69,5.69,0,0,1-1.41.32q-.88.11-1.86.15c-.65,0-1.29,0-1.92,0s-1.16,0-1.58,0v3.75a15.25,15.25,0,0,0,3.38.07,22.26,22.26,0,0,0,3.36-.58Z"/><path class="cls-4" d="M78.65,55.65a1.87,1.87,0,0,1,1,.29,2.22,2.22,0,0,1,.67.62,1.7,1.7,0,0,1,.11,1.8,1.77,1.77,0,0,1-.38.5,1.17,1.17,0,0,1-.54.35,18,18,0,0,1-4,.72,23.12,23.12,0,0,1-4.08-.08l-1.26-.12a2.66,2.66,0,0,1-1.21-.39A2,2,0,0,1,68,57.6v-13a2,2,0,0,1-.55-.61,2,2,0,0,1-.26-.78,1.64,1.64,0,0,1,.11-.79,1.55,1.55,0,0,1,.52-.66,3.28,3.28,0,0,1,1.4-.65c.53-.11,1-.21,1.55-.29a21.29,21.29,0,0,1,3.18-.25l3.23,0a9.87,9.87,0,0,0,1.13-.07,2.39,2.39,0,0,1,1.12.1,2,2,0,0,1,.92.67,2.07,2.07,0,0,1,.39,1,1.64,1.64,0,0,1-.19,1,1.81,1.81,0,0,1-.9.76,4.05,4.05,0,0,1-1.63.27l-1.67,0q-1.15,0-2.31,0a20,20,0,0,0-2.32.19v4.23a16,16,0,0,0,2.19,0c.74,0,1.47-.09,2.2-.15l1-.09a4.18,4.18,0,0,1,1,0,1.52,1.52,0,0,1,1,.55,2.07,2.07,0,0,1,.44,1,1.81,1.81,0,0,1-.2,1.11,1.65,1.65,0,0,1-.88.8,5.6,5.6,0,0,1-1.4.32q-.88.11-1.86.15c-.65,0-1.3,0-1.93,0s-1.15,0-1.58,0v3.75a15.28,15.28,0,0,0,3.38.07,22.26,22.26,0,0,0,3.36-.58Z"/><rect class="cls-5" x="-928" y="-244" width="1356" height="500"/></svg>