<svg id="Layer_1" data-name="Layer 1" xmlns="http://www.w3.org/2000/svg" viewBox="0 0 99.7 99.7"><defs><style>.cls-1{fill:#8983fc;}.cls-2{fill:#545454;}.cls-3{fill:none;}</style></defs><title>For Haoqin</title><path class="cls-1" d="M71.83,86.34a1.77,1.77,0,0,1-1.77-1.77l-.18-24.48H60a1.61,1.61,0,0,1-1-.3L40.41,47.46a1.77,1.77,0,0,1,2-3l18.2,12H71.65a1.77,1.77,0,0,1,1.77,1.77l.21,26.25a1.78,1.78,0,0,1-1.8,1.77Z"/><path class="cls-1" d="M71.63,99a1.77,1.77,0,0,1-1.77-1.77V84.52a1.77,1.77,0,0,1,3.54,0V97.23A1.78,1.78,0,0,1,71.63,99Z"/><path class="cls-1" d="M57.35,99a1.77,1.77,0,0,1-1.77-1.77V84.52a1.77,1.77,0,1,1,3.54,0V97.23A1.78,1.78,0,0,1,57.35,99Z"/><path class="cls-1" d="M28.82,99a1.78,1.78,0,0,1-1.77-1.77V84.52a1.77,1.77,0,1,1,3.54,0V97.23A1.78,1.78,0,0,1,28.82,99Z"/><path class="cls-1" d="M43.07,99a1.78,1.78,0,0,1-1.77-1.77V84.52a1.77,1.77,0,0,1,3.54,0V97.23A1.76,1.76,0,0,1,43.07,99Z"/><path class="cls-1" d="M71.63,17.25a1.77,1.77,0,0,1-1.77-1.77V2.77a1.77,1.77,0,0,1,3.54,0V15.48A1.77,1.77,0,0,1,71.63,17.25Z"/><path class="cls-1" d="M57.35,17.25a1.77,1.77,0,0,1-1.77-1.77V2.77a1.77,1.77,0,1,1,3.54,0V15.48A1.77,1.77,0,0,1,57.35,17.25Z"/><path class="cls-1" d="M28.82,17.25a1.77,1.77,0,0,1-1.77-1.77V2.77a1.77,1.77,0,1,1,3.54,0V15.48A1.77,1.77,0,0,1,28.82,17.25Z"/><path class="cls-1" d="M43.07,17.25a1.77,1.77,0,0,1-1.77-1.77V2.77a1.77,1.77,0,1,1,3.54,0V15.48A1.75,1.75,0,0,1,43.07,17.25Z"/><path class="cls-1" d="M97.82,73.19H85.11a1.77,1.77,0,0,1,0-3.54H97.82a1.77,1.77,0,1,1,0,3.54Z"/><path class="cls-1" d="M97.82,58.91H85.11a1.77,1.77,0,1,1,0-3.54H97.82a1.77,1.77,0,1,1,0,3.54Z"/><path class="cls-1" d="M97.82,30.35H85.11a1.77,1.77,0,1,1,0-3.54H97.82a1.77,1.77,0,1,1,0,3.54Z"/><path class="cls-1" d="M97.82,44.63H85.11a1.77,1.77,0,1,1,0-3.54H97.82a1.77,1.77,0,1,1,0,3.54Z"/><path class="cls-1" d="M15.55,73.19H2.83a1.77,1.77,0,0,1,0-3.54H15.55a1.77,1.77,0,1,1,0,3.54Z"/><path class="cls-1" d="M15.55,58.91H2.83a1.77,1.77,0,0,1,0-3.54H15.55a1.77,1.77,0,1,1,0,3.54Z"/><path class="cls-1" d="M15.55,30.35H2.83a1.77,1.77,0,1,1,0-3.54H15.55a1.77,1.77,0,0,1,0,3.54Z"/><path class="cls-1" d="M15.55,44.63H2.83a1.77,1.77,0,0,1,0-3.54H15.55a1.77,1.77,0,1,1,0,3.54Z"/><path class="cls-2" d="M77.88,86.29H22.57a8.67,8.67,0,0,1-8.65-8.65V22.33a8.66,8.66,0,0,1,8.65-8.64H77.88a8.65,8.65,0,0,1,8.64,8.64V77.64A8.66,8.66,0,0,1,77.88,86.29Zm-55.31-69a5.11,5.11,0,0,0-5.11,5.11V77.67a5.1,5.1,0,0,0,5.11,5.1H77.88a5.1,5.1,0,0,0,5.1-5.1V22.33a5.1,5.1,0,0,0-5.1-5.1H22.57Z"/><path class="cls-2" d="M50.74,71.42a1.66,1.66,0,0,1-1-.3l-18.21-12H15.69a1.77,1.77,0,1,1,0-3.54H32.07a1.63,1.63,0,0,1,1,.29L51.68,68.17a1.75,1.75,0,0,1,.5,2.45A1.67,1.67,0,0,1,50.74,71.42Z"/><path class="cls-2" d="M38.35,30.47H16.28a1.77,1.77,0,0,1,0-3.54H38.35a1.77,1.77,0,0,1,0,3.54Z"/><path class="cls-2" d="M84.16,44.78H64.84a1.77,1.77,0,0,1,0-3.54H84.16a1.77,1.77,0,0,1,0,3.54Z"/><path class="cls-2" d="M64.84,44.72A1.78,1.78,0,0,1,63.07,43V28.7a1.77,1.77,0,1,1,3.54,0V43A1.76,1.76,0,0,1,64.84,44.72Z"/><path class="cls-2" d="M64.93,32h-.15a3.25,3.25,0,0,1,0-6.49h.12a3.25,3.25,0,0,1,0,6.49Z"/><path class="cls-1" d="M41.77,48.91h-.12a3.25,3.25,0,0,1,0-6.49h.12a3.25,3.25,0,1,1,0,6.49Z"/><path class="cls-2" d="M50.59,72.89h-.12a3.25,3.25,0,0,1,0-6.49h.12a3.25,3.25,0,1,1,0,6.49Z"/><path class="cls-2" d="M38.47,32h-.12a3.25,3.25,0,1,1,0-6.49h.12a3.25,3.25,0,0,1,0,6.49Z"/><rect class="cls-3" x="-1037" y="-244" width="1356" height="500"/></svg>